<?xml version="1.0" encoding="UTF-8" standalone="no"?>
<svg
   xmlns:dc="http://purl.org/dc/elements/1.1/"
   xmlns:cc="http://creativecommons.org/ns#"
   xmlns:rdf="http://www.w3.org/1999/02/22-rdf-syntax-ns#"
   xmlns:svg="http://www.w3.org/2000/svg"
   xmlns="http://www.w3.org/2000/svg"
   xmlns:sodipodi="http://sodipodi.sourceforge.net/DTD/sodipodi-0.dtd"
   xmlns:inkscape="http://www.inkscape.org/namespaces/inkscape"
   viewBox="0 0 1466.6667 1066.6667"
   height="1066.6667"
   width="1466.6667"
   xml:space="preserve"
   id="svg2"
   version="1.1"
   sodipodi:docname="66175.svg"
   inkscape:version="0.92.4 (unknown)"><sodipodi:namedview
     pagecolor="#ffffff"
     bordercolor="#666666"
     borderopacity="1"
     objecttolerance="10"
     gridtolerance="10"
     guidetolerance="10"
     inkscape:pageopacity="0"
     inkscape:pageshadow="2"
     inkscape:window-width="1366"
     inkscape:window-height="742"
     id="namedview116"
     showgrid="false"
     inkscape:zoom="0.3454396"
     inkscape:cx="721.75393"
     inkscape:cy="451.45431"
     inkscape:window-x="0"
     inkscape:window-y="0"
     inkscape:window-maximized="1"
     inkscape:current-layer="g12" /><metadata
     id="metadata8"><rdf:RDF><cc:Work
         rdf:about=""><dc:format>image/svg+xml</dc:format><dc:type
           rdf:resource="http://purl.org/dc/dcmitype/StillImage" /></cc:Work></rdf:RDF></metadata><defs
     id="defs6" /><g
     id="g12"
     transform="matrix(0.13333333,0,0,-0.13333333,-2.0469766,1050.2909)"><g
       id="g4845"><path
         id="path14"
         style="fill:#67b2e1;fill-opacity:1;fill-rule:nonzero;stroke:none"
         d="M 0,0 H 11000 V 8000 H 0 Z"
         inkscape:connector-curvature="0" /><path
         id="path16"
         style="fill:#e4eff6;fill-opacity:1;fill-rule:nonzero;stroke:none"
         d="m 8963.31,454.41 c -57.38,0 -115.09,2.32 -173.43,7.981 -222.92,21.64 -448.89,32.449 -670.7,63.328 -509.06,70.871 -1018.36,75.062 -1531.12,75.062 -203.6,0 -407.14,1.969 -610.7,1.969 -296.37,0 -592.69,-4.191 -888.48,-24.77 -461.44,-32.121 -923.59,-37.242 -1385.85,-37.242 -69.75,0 -139.56,0.121 -209.31,0.282 -4.5,0.011 -8.98,0.011 -13.47,0.011 -255.96,0 -510.92,-16.402 -766.49,-27.98 -256.72,-11.641 -506.34,-30.75 -761.58,-30.75 -23.01,0 -46.11,0.148 -69.22,0.488 -255.03,3.641 -643.35,80.91 -825.29,277.84 -108.018,117.023 -93.373,398.521 14.81,511.331 47.26,49.29 123.45,87.89 185.68,111.37 177.29,66.9 357.7,67.07 542.95,68.45 2.28,0.02 4.54,0.03 6.81,0.03 12.79,0 25.62,-0.27 38.49,-0.79 l -62.61,-428.77 165.14,-45.43 154.58,435.21 c 29.65,-7.37 58.94,-15.52 87.66,-24.25 111.46,-33.87 225.35,-45.74 338.71,-66.82 11.97,-2.23 24.03,-4.3 36.2,-6.23 l 65.03,-398.14 156.02,13.32 21.95,365.56 c 3.67,-0.02 7.33,-0.03 10.99,-0.03 63.86,0 127.29,3.5 188.11,10.3 74.5,8.32 149.23,14.63 224.04,20.38 -0.34,-10.87 0.3,-21.2 3.07,-29.57 14.55,-44.04 78.56,-54.92 118.89,-59.68 27.56,-3.25 55.3,-4.88 83.05,-4.88 7.67,0 15.34,0.12 23,0.37 7.22,37.84 15.33,75.55 24.14,113.15 6.42,0.54 12.85,1.1 19.27,1.66 132.99,11.68 264.13,32.2 395.63,50.89 -2.96,-44 -6.77,-87.86 -11.75,-131.54 33.46,-11.63 67.78,-20.74 102.6,-27.23 16.83,-3.15 38.02,-6.5 58.91,-6.5 28.64,0 56.74,6.3 72.34,28.11 13.8,19.28 17.16,56.57 23.03,79.23 7.91,30.52 15.52,61.13 22.95,91.78 83.69,12.37 166.3,31.7 250.36,41.43 270.61,31.3 541.7,38.08 812.79,38.92 21.99,0.06 43.96,0.09 65.95,0.09 129.05,0 258.11,-1 387.1,-1 97.91,0 195.74,0.28 293.6,0.32 4.56,-128.23 7.44,-256.58 5.48,-385.66 -0.74,-48.52 -19.23,-111.99 20.85,-147.518 13.15,-11.66 27.08,-17.902 40.03,-17.89 16.49,0 31.39,10.109 41.09,32 17.71,39.958 14.64,86.288 20.72,128.638 18.87,131.26 54.85,260.08 83.55,389.93 137.55,-0.84 275.09,-2.92 412.5,-7.72 3.18,-61.73 7.9,-123.42 11.67,-185.08 6.56,-107.56 -15.12,-218.41 35.91,-318.09 10.1,-19.729 27.4,-35.678 45.29,-35.678 10.46,0 21.12,5.437 30.67,18.757 19.96,27.821 10.77,75.971 15.71,108.271 20.61,135.02 51.11,268.17 80.03,401.62 84.26,-4.98 168.51,-11.29 252.7,-19.25 110.89,-10.49 221.07,-4.14 330.42,-29.1 109.78,-25.05 220.61,-47.91 333.09,-52.38 96.25,-3.82 192.75,-5.07 289.4,-5.07 171.86,0 344.07,3.98 515.37,4.62 17.16,0.07 41.03,0.18 70.66,0.18 383.44,0 1719.2,-18.32 1623.4,-389.03 C 10198.9,860.781 9984.84,675.379 9864.76,615.699 9713.07,540.32 9547.19,495.719 9380.22,480.68 9239.48,468.012 9102.28,454.41 8963.31,454.41"
         inkscape:connector-curvature="0" /><path
         id="path18"
         style="fill:#e5d1bd;fill-opacity:1;fill-rule:nonzero;stroke:none"
         d="m 3500.88,4064.86 c -2.28,1.89 -4.65,3.82 -7.28,4.94 -24.53,10.47 -43.59,1.23 -69.97,4.57 -11.77,1.49 -24.98,28.97 -40.94,10.04 -5.89,-6.98 -17.92,-26.15 -30.34,-41.17 -18.11,-21.9 -54.3,-38.7 -85.49,-46.75 -41.92,-10.8 -86.55,-21.27 -129.27,-25.67 -89.76,-9.23 -190.68,-9.61 -280.67,-1.58 6.63,149.2 -77.35,298.84 -208.17,370.89 -13.67,7.53 -28.37,14.41 -43.98,14.57 -13.2,0.13 -25.99,-4.59 -37.74,-10.6 -124.23,-63.62 -58.64,-178.6 -9.67,-273.47 30.56,-59.21 65.35,-117.37 104.33,-171.46 54.6,-75.74 133.58,-90.83 224.54,-88.1 96.39,2.88 193.98,7.53 287.94,30.93 45.66,11.37 85.9,30.52 129.27,47.58 42.86,16.85 47.97,-3.17 89.27,1.96 23.04,2.87 47.08,1.43 69.27,8.56 39.8,12.78 53.5,53.72 68.99,88.31 3.86,8.61 6.49,14.42 5.91,23.24 -0.94,14.35 -10.12,24.87 -18.85,35.63 -5.17,6.37 -10.87,12.36 -17.15,17.58"
         inkscape:connector-curvature="0" /><path
         id="path20"
         style="fill:#b5d6ca;fill-opacity:1;fill-rule:nonzero;stroke:none"
         d="m 2523.13,3990.21 c 28.18,-43.09 57.68,-84.16 87.63,-122.6 44.66,-57.32 95,-118.37 165.9,-134.29 27.33,-6.14 55.71,-4.93 83.68,-3.55 132.63,6.58 265.08,16.48 397.21,29.7 9.82,69.05 9.1,139.59 -2.13,208.42 -3.15,19.31 -7.96,39.98 -22.78,52.76 -22.01,19 -55.37,12.58 -83.46,5.08 -45.75,-12.22 -91.51,-24.43 -137.26,-36.65 -14.84,-3.96 -31.43,-7.75 -44.93,-0.4 -8.81,4.8 -14.63,13.56 -19.96,22.06 -100.84,160.7 -153.38,313.91 -209.42,493.63 -24.71,79.22 -50.92,161.12 -106.47,222.76 -118.61,131.64 -338.29,53.23 -330.57,-129.92 8.8,-208.82 104.09,-425.84 222.56,-607"
         inkscape:connector-curvature="0" /><path
         id="path22"
         style="fill:#eacdb0;fill-opacity:1;fill-rule:nonzero;stroke:none"
         d="m 6591.44,2084.84 6.89,-418.7 c -2.81,-116.17 7.65,-231.99 14.72,-347.77 6.56,-107.56 -15.12,-218.41 35.91,-318.09 16,-31.249 50.05,-53.03 75.96,-16.921 19.96,27.821 10.77,75.971 15.71,108.271 37.06,242.73 106.04,479.44 140.47,722.62 36.05,254.74 -62.5,248.01 -289.66,270.59"
         inkscape:connector-curvature="0" /><path
         id="path24"
         style="fill:#1a3151;fill-opacity:1;fill-rule:nonzero;stroke:none"
         d="m 6615.23,1071.86 -26.92,-69.85 132.47,-116.6 121.35,-5 39.24,64.031 -163.2,141.909 -102.94,-14.49"
         inkscape:connector-curvature="0" /><path
         id="path26"
         style="fill:#eacdb0;fill-opacity:1;fill-rule:nonzero;stroke:none"
         d="m 6294.83,2080.77 -76.38,-411.76 c -26.47,-184.19 -86.64,-363.57 -113.12,-547.77 -6.08,-42.35 -3.01,-88.68 -20.72,-128.638 -17.31,-39.082 -51.21,-40.633 -81.12,-14.11 -40.08,35.528 -21.59,98.998 -20.85,147.518 4.9,323.26 -20.53,641.93 -26.64,965.71 -0.08,4.24 0.11,9.11 3.39,11.8 2.66,2.2 6.47,2.15 9.91,1.92 31.44,-2.1 323.88,-33.57 325.53,-24.67"
         inkscape:connector-curvature="0" /><path
         id="path28"
         style="fill:#1a3151;fill-opacity:1;fill-rule:nonzero;stroke:none"
         d="m 5981.7,1054.66 -41.99,-61.969 102.73,-143.48 117.09,-32.262 52.68,53.52 -126.96,175.081 -103.55,9.11"
         inkscape:connector-curvature="0" /><path
         id="path30"
         style="fill:#1a3151;fill-opacity:1;fill-rule:nonzero;stroke:none"
         d="m 7022.99,1818.43 -57.13,598.61 -27.55,388.95 -92.62,317.67 -500.14,77.62 -618.34,-105.99 -29.72,-120.13 119,-1112.03 596.41,-44.7 -8.09,692.12 92,-429 -3.9,-263.12 h 530.08"
         inkscape:connector-curvature="0" /><path
         id="path32"
         style="fill:#ffffff;fill-opacity:1;fill-rule:nonzero;stroke:none"
         d="m 5858.47,4293.24 c -0.84,-20.21 -1.39,-40.41 -1.75,-60.57 -7.24,-410.61 15.4,-826.45 18,-1240.47 212.04,33.19 426.4,51.48 641,54.72 49.67,0.76 275.5,-34.12 306.94,-4.46 42.67,40.24 -4.25,32.66 -1.13,85.1 4.04,67.84 -28.56,123.4 -16.24,203.79 14.47,94.48 43.25,187.93 59.84,282.4 33.24,189.42 53.26,381.16 59.76,573.36 5.76,170.48 -0.42,347.28 -73.74,501.3 -180.79,379.81 -763.65,372.98 -923.58,-23.59 -47.37,-117.46 -63.81,-244.63 -69.1,-371.58"
         inkscape:connector-curvature="0" /><path
         id="path34"
         style="fill:#145566;fill-opacity:1;fill-rule:nonzero;stroke:none"
         d="m 6516.18,4826.03 -158.31,-288.5 c 8.28,-291.43 16.55,-582.86 24.82,-874.3 3.82,-134.31 7.63,-268.62 11.44,-402.93 1.32,-46.63 2.48,-93.28 3.97,-139.91 0.67,-20.93 -5.11,-56.17 6.83,-73.25 25.92,-37.08 120.66,-25.52 161.99,-28.77 64.44,-5.07 129.83,-10.34 190.53,-32.59 40.42,-14.81 78.72,-37.12 121.35,-43.11 9.58,-1.34 20.29,-1.53 27.81,4.54 8.41,6.8 9.84,18.86 10.64,29.64 14.82,200.08 15.13,406.34 26.22,608.56 8.73,159.04 30.27,319.35 22.68,478.62 -7.81,163.82 -33.45,326.79 -64.77,487.59 -18.54,95.2 -40.33,192.26 -92.74,273.87 -59.41,92.51 -143.5,129.57 -247.09,150.43 -36.58,7.36 -172.75,58.85 -150.02,-24.33 11.24,-41.13 76.88,-92.53 104.65,-125.56"
         inkscape:connector-curvature="0" /><path
         id="path36"
         style="fill:#145566;fill-opacity:1;fill-rule:nonzero;stroke:none"
         d="m 6171.77,4798.9 158.31,-288.5 c -3.32,0 -20.08,-707.18 -21.43,-754.91 -5.16,-181.53 -10.31,-363.06 -15.46,-544.59 -1.43,-50.46 5.35,-109.56 -4.52,-159.16 -13.78,-69.24 -86.67,-55.61 -148.79,-61.21 -135.87,-12.25 -278.92,-35.44 -415.16,-28.56 -39.3,1.98 12.42,822.13 12.35,898.67 -0.27,275.27 -57.06,580.67 82.77,830.3 40.69,72.63 112.41,189.07 191.58,224.93 73.78,33.42 179.39,39.1 259.48,57.83 l 4.17,-51.9 -103.3,-122.9"
         inkscape:connector-curvature="0" /><path
         id="path38"
         style="fill:#1a3151;fill-opacity:1;fill-rule:nonzero;stroke:none"
         d="m 6515.36,5497.7 c 24.93,-43.68 36.94,-93.99 39.15,-144.23 0.59,-13.36 1.5,-28.78 12.3,-36.67 11.56,-8.44 1.4,-26.96 10.19,-15.67 8.8,11.29 38.66,50.52 40,64.77 3.15,33.39 3.1,67.08 -0.14,100.46 -2.82,29.03 -8.75,59.36 -27.75,81.49 -11.26,13.12 -26.29,22.35 -41.09,31.29 -21.47,12.97 -43.59,26.05 -68.24,30.64 -42.5,7.92 -68.56,-7.32 -31.07,-36.96 26.87,-21.23 49.58,-45.2 66.65,-75.12"
         inkscape:connector-curvature="0" /><path
         id="path40"
         style="fill:#eacdb0;fill-opacity:1;fill-rule:nonzero;stroke:none"
         d="m 6249.85,4927.82 c 0.29,-20.56 -3.93,-41.89 14.21,-57.83 8.72,-7.67 20.51,-10.74 31.98,-12.56 29.64,-4.69 60.35,-2.51 89.03,6.32 11.8,3.63 23.56,8.57 32.46,17.12 10.53,10.1 11.06,19.68 11.57,32.91 0.59,15.49 3.72,31.25 5.75,46.97 4.43,34.37 6.43,69.02 7.42,103.65 50.92,8.74 110.8,25.2 128.21,78.54 5.48,16.8 5.67,35.07 5.81,52.95 0.54,73.89 1.08,147.78 1.62,221.68 0.19,25.55 0.24,51.89 -8.51,75.61 -15.35,41.61 -54.38,66.42 -92.64,82.02 -97.65,39.83 -211.47,38.25 -301.6,-18.41 -23.98,-15.07 -46.62,-34.47 -60.44,-60.79 -21.3,-40.59 -18.62,-90.71 -15.31,-137.55 3.05,-43.23 6.11,-86.47 9.16,-129.7 3.51,-49.73 10.98,-106.96 49.6,-133.23 20.5,-13.94 46.99,-16.5 64.66,-34.54 30.85,-31.5 16.15,-78.55 25.26,-116.72 1.28,-5.34 1.69,-10.86 1.76,-16.44"
         inkscape:connector-curvature="0" /><path
         id="path42"
         style="fill:#1a3151;fill-opacity:1;fill-rule:nonzero;stroke:none"
         d="m 6409.9,5121.29 c -26.53,-17.83 -55.76,-18.79 -85.33,-9.89 -12.57,3.78 -7.24,24.88 5.35,21.09 24.5,-7.38 47.63,-7.19 69.72,7.66 11.11,7.47 21.31,-11.43 10.26,-18.86 z m 184.31,104.06 c -0.83,13.7 -6.82,53.85 -27.42,28.62 -5.39,-6.6 -6.72,-15.93 -7.05,-24.72 -0.33,-8.78 0.06,-17.82 -2.71,-26.1 -6.35,-18.99 -27.36,-27.63 -46.08,-27.29 -7.45,0.13 -15.03,1.35 -21.62,5.1 -6.39,3.64 -11.46,9.42 -16.41,15.1 -12.01,13.79 -24.03,27.57 -36.04,41.36 -20.65,23.7 -61.62,13.45 -89.44,9.82 -32.08,-4.19 -64.16,-13.87 -90.37,-34.97 -2.64,-2.13 -5.22,-4.37 -7.81,-6.6 -6.32,-5.45 -12.67,-10.84 -20.01,-14.42 -24.77,-12.06 -55.44,0.53 -72.8,23.09 -7.96,10.33 -15.38,23.64 -27.73,25.37 -9.67,1.35 -19.08,-5.58 -24.04,-14.62 -4.96,-9.05 -6.29,-19.84 -6.97,-30.32 -2.44,-38.17 2.82,-77.53 19.36,-111.38 35.88,-73.41 105.24,-82.43 174.95,-80.78 27.55,0.65 55.11,1.3 82.66,1.95 50.37,1.19 103.62,3.28 146.06,32.56 37.43,25.83 59.68,69.76 68.8,115.76 4.71,23.74 6.13,48.25 4.67,72.47"
         inkscape:connector-curvature="0" /><path
         id="path44"
         style="fill:#1a3151;fill-opacity:1;fill-rule:nonzero;stroke:none"
         d="m 6604.73,5625.75 c 4.86,17.91 8.46,36.16 10.75,54.58 -17.05,-5.99 -35.62,-7.58 -53.44,-4.58 -0.04,10.62 -0.08,21.25 -0.12,31.88 -0.08,8.83 -119.63,15.02 -129.35,15.82 -90.94,7.46 -174.11,14.55 -256.34,-34.26 -70.25,-41.69 -115.29,-103.95 -126.06,-184.98 -10.3,-77.42 15.04,-178.54 59.81,-242.8 -0.26,20.62 -12.12,69.23 -7.26,88.82 2.98,19.63 9.76,38.56 19.12,56.04 18.68,34.89 47.63,64.25 81.06,85.21 53.3,33.4 115.28,51.06 177.17,59.69 56.71,7.89 125.82,15.18 181.85,0.16 26.93,-7.22 31.39,-13.98 47.7,13.21 2.88,4.79 25.68,60.75 23.45,60.79 -9.45,0.14 -18.9,0.28 -28.34,0.42"
         inkscape:connector-curvature="0" /><path
         id="path46"
         style="fill:#eacdb0;fill-opacity:1;fill-rule:nonzero;stroke:none"
         d="m 6968.48,4549.91 c -26.25,0.56 -51.03,12.38 -72.92,26.87 -87.49,57.92 -125.52,163.82 -173.61,252.72 -28.68,53.02 -56.77,131.68 -101.24,172.77 -8.33,7.7 -104,53.17 -103.2,56.14 l 4.85,26.16 26,-5 15.43,10.57 -69.62,35.99 45.7,77 103.71,2.61 c 30.21,-57.72 46.11,-124.5 89.66,-174.07 18.42,-20.97 40.12,-38.76 60.27,-58.08 34.59,-33.18 64.45,-70.77 95.73,-106.97 40.08,-46.39 101.07,-84.21 124.54,-142.41 13.08,-32.45 34.62,-105.54 19.68,-138.08 -10.96,-23.85 -38.73,-36.77 -64.98,-36.22"
         inkscape:connector-curvature="0" /><path
         id="path48"
         style="fill:#145566;fill-opacity:1;fill-rule:nonzero;stroke:none"
         d="m 7044.69,4668.65 c 6.32,-0.98 13.09,-2.17 17.67,-6.65 5.14,-5.01 6.15,-12.78 6.74,-19.94 6.73,-82.37 -6.04,-164.96 -19.62,-246.48 -18.9,-113.4 -42.94,-233.58 -122.5,-316.56 -45.84,-47.82 -120.02,-79.62 -178.43,-48.37 -51.1,27.32 -69.81,90.64 -77.76,148.03 -23.53,169.64 5.34,346.18 81.66,499.5 5.1,10.25 10.73,20.78 20.01,27.48 22.76,16.42 93.79,-9.36 120.66,-13.53 50.52,-7.82 101.04,-15.65 151.57,-23.48"
         inkscape:connector-curvature="0" /><path
         id="path50"
         style="fill:#eacdb0;fill-opacity:1;fill-rule:nonzero;stroke:none"
         d="m 5738.6,5020.68 c 34.14,28.02 46.69,74.46 31.36,116 -28.03,75.9 -56.05,151.8 -84.07,227.71 -15.74,42.62 -45.78,93.42 -46.32,137.87 -0.95,78.59 27.04,167.7 43.16,244.3 8.18,38.89 11.19,93.9 31.6,128.21 3.82,6.44 55.78,53.13 54.71,54.86 l -7.97,15.63 -15.5,-8.04 -11.74,3.79 37.27,35.81 -43.34,40.11 -66.06,-17.8 c -8.27,-42.16 -5.8,-87.36 -24.03,-126.88 -7.71,-16.71 -18.1,-32.02 -27.21,-48.02 -15.65,-27.47 -27.47,-56.83 -40.46,-85.59 -12.56,-27.82 -30.62,-53.26 -42.6,-80.81 -26.74,-61.47 -53.05,-123.14 -79.57,-184.71 l 122.91,-401.47 c 21.92,-71.6 110.09,-98.37 167.86,-50.97"
         inkscape:connector-curvature="0" /><path
         id="path52"
         style="fill:#145566;fill-opacity:1;fill-rule:nonzero;stroke:none"
         d="m 6031.02,4982.94 c -49.84,21.74 -96.82,50.94 -135.38,86.67 -17.75,16.45 -97.98,168.61 -83.38,172.62 -1.23,-0.39 -2.46,-0.78 -3.69,-1.17 l -10.8,-4.02 -1.46,0.16 c -23.97,2.43 -67.17,-21.4 -90.51,-28.82 -75.79,-24.1 -150.86,-51.63 -228.76,-64.99 0.02,-68.18 13.19,-135.94 32.26,-201.18 17.45,-59.69 47.27,-108.49 69.94,-164.73 23.54,-58.36 54.01,-112.51 84.83,-167.25 7.53,-13.37 83.03,-168.87 78.66,-169.62 43.77,7.49 77.5,42.13 104.37,77.49 63.11,83.05 93.12,195.57 172.32,263.34 61.53,52.65 141.98,57.75 134.1,164.12 -40.76,7.34 -82.55,19.96 -122.5,37.38"
         inkscape:connector-curvature="0" /><path
         id="path54"
         style="fill:#eacdb0;fill-opacity:1;fill-rule:nonzero;stroke:none"
         d="m 4725.44,5257.25 c 0.71,-12.29 -6.1,-26.24 -10.45,-37.4 -15.18,-38.93 -20.13,-81.79 -14.24,-123.15 40.33,0.13 80.66,-6.43 118.87,-19.34 8.36,30.2 16.71,60.41 25.07,90.61 1.31,4.74 2.7,9.63 5.82,13.44 4.02,4.9 10.27,7.26 16.16,9.6 32.41,12.87 62.62,31.25 88.95,54.11 5.73,4.97 11.45,10.39 14.32,17.42 2.59,6.34 2.62,13.4 2.61,20.25 -0.09,54.62 -0.18,109.23 -0.27,163.85 -0.01,6.1 -0.14,12.63 -3.62,17.64 -3.58,5.15 -9.88,7.53 -15.79,9.63 -9.33,3.31 -18.67,6.61 -28,9.92 -2.6,1.37 -5.4,2.38 -8.43,2.99 -18.98,6.73 -23.5,6.2 -42.27,0.05 -3.64,-1.19 -44.34,-10.33 -44.67,-6.89 5.61,-57.9 -10.94,-117.67 -45.52,-164.44 -2.37,-3.2 -5.28,-6.6 -9.24,-6.94 -4.2,-0.36 -7.76,2.87 -10.63,5.96 -12.75,13.77 -23.3,29.57 -31.13,46.63 -15.07,-3.77 -30.14,-7.54 -45.21,-11.31 -3.98,-24.07 4.04,-51.02 21.17,-68.59 1.82,-1.85 3.52,-3.36 5.09,-4.68 6.5,-5.49 10.75,-7.85 11.41,-19.36"
         inkscape:connector-curvature="0" /><path
         id="path56"
         style="fill:#b5d6ca;fill-opacity:1;fill-rule:nonzero;stroke:none"
         d="m 4877.24,5174.9 -188.24,30.84 -191.98,-525.4 -453.55,77.26 98.78,-604.53 576.95,345.55 158.04,676.28"
         inkscape:connector-curvature="0" /><path
         id="path58"
         style="fill:#e5d1bd;fill-opacity:1;fill-rule:nonzero;stroke:none"
         d="m 3385.18,1142.17 c -28.62,-1.9 -54.81,8.15 -82.55,11.27 1.32,97.99 11.94,191.96 33.05,288.71 43.14,-47.89 79.47,-20.05 78,-110.04 -0.47,-29.13 -34.11,-145.62 -28.5,-189.94"
         inkscape:connector-curvature="0" /><path
         id="path60"
         style="fill:#2e4661;fill-opacity:1;fill-rule:nonzero;stroke:none"
         d="m 3296.36,1202.18 c -32.55,11.65 -39.89,-66.08 -40.14,-84.36 -0.15,-10.98 1.15,-22.18 -1.64,-32.8 -3.07,-11.7 -10.78,-21.53 -18.31,-30.99 -15.76,-19.81 -31.52,-39.62 -47.27,-59.428 -7.09,-8.911 -14.3,-18.032 -18.1,-28.762 -9.41,-26.59 6.14,-58.121 31.32,-70.848 87.36,-44.133 167.16,62.727 186.08,133.278 2.9,10.82 5.02,21.82 7.13,32.81 4.38,22.75 21.59,72.34 12.56,94.55 -10.53,25.93 -42.43,7.15 -63.34,16.92 -19.39,9.06 -35.12,24.91 -48.29,29.63"
         inkscape:connector-curvature="0" /><path
         id="path62"
         style="fill:#1a3151;fill-opacity:1;fill-rule:nonzero;stroke:none"
         d="m 3917.02,2756.8 c -81.45,-221.73 -175.43,-438.61 -229.03,-670.72 -66.21,-286.73 -172.96,-566.35 -227.75,-853.72 -35.39,-1.15 -70.88,0.36 -106.05,4.51 -40.33,4.76 -104.34,15.64 -118.89,59.68 -7.44,22.51 0.45,59.11 1.58,82.49 3.64,74.88 8.99,149.68 14.49,224.44 15.58,211.54 26.27,425.66 65.17,634.2 40.93,219.37 80.13,439.5 116.14,658.84 18.61,113.37 41.54,226.03 69.74,337.41 7.26,28.7 82.92,324.49 97.77,322.13 176.29,-28.05 341.2,-86.43 494.72,-177.47 14.92,-8.85 29.32,-19.4 34.51,-35.15 5.19,-15.75 0.49,-29.33 -4.32,-43.63 -45.89,-136.34 -107.06,-264.2 -155.98,-400.01 -17.02,-47.25 -34.29,-94.5 -52.1,-143"
         inkscape:connector-curvature="0" /><path
         id="path64"
         style="fill:#e5d1bd;fill-opacity:1;fill-rule:nonzero;stroke:none"
         d="m 3932.38,1158.08 c 26.76,-10.32 54.75,-8.51 82.16,-13.78 27.89,93.95 45.69,186.82 54.31,285.47 -55.43,-32.89 -81.84,4.49 -107.2,-81.86 -8.21,-27.95 -10.73,-149.18 -29.27,-189.83"
         inkscape:connector-curvature="0" /><path
         id="path66"
         style="fill:#2e4661;fill-opacity:1;fill-rule:nonzero;stroke:none"
         d="m 4042.56,1172.58 c 0.07,-53.13 41.89,-110.34 65.03,-158.12 2.72,-5.62 5.5,-11.47 5.61,-17.71 0.17,-9.281 -5.5,-17.52 -10.94,-25.039 -7.54,-10.441 -15.74,-21.41 -27.73,-26.109 -11.79,-4.61 -25.03,-2.301 -37.39,0.418 -20.69,4.543 -41.17,10.019 -61.35,16.429 -5.03,1.602 -10.16,3.321 -14.26,6.641 -4.86,3.941 -7.78,9.711 -10.56,15.308 -14.27,28.732 -26.41,49.122 -25.64,81.122 0.8,33.06 4.97,67.31 -1.08,100.07 -2.98,15.89 -6.94,36.21 6.67,44.93 10.52,6.75 29.79,-2.55 41.25,-4.42 20.21,-3.3 38.9,-2.04 57.51,-12.66 3.8,-2.16 7.49,-4.76 9.83,-8.45 2.37,-3.75 3.05,-7.98 3.05,-12.41"
         inkscape:connector-curvature="0" /><path
         id="path68"
         style="fill:#1a3151;fill-opacity:1;fill-rule:nonzero;stroke:none"
         d="m 3904.81,2857.83 c 11.81,-235.92 37.04,-470.94 19.18,-708.49 -22.06,-293.45 -3.3,-592.16 -36.46,-882.82 33.46,-11.63 67.78,-20.74 102.6,-27.23 39.92,-7.46 104.26,-16.1 131.25,21.61 13.8,19.28 17.16,56.57 23.03,79.23 18.8,72.57 35.94,145.58 52.92,218.6 48.03,206.59 101.51,414.21 126.39,624.88 26.17,221.62 54.21,443.45 85.07,663.57 15.94,113.78 27.56,228.16 33.77,342.88 1.59,29.56 17.33,334.47 2.45,336.63 -176.65,25.65 -351.46,18.96 -525.12,-22.31 -16.88,-4.01 -33.76,-9.79 -43.4,-23.29 -9.64,-13.5 -9.19,-27.86 -8.85,-42.94 3.26,-143.82 23.64,-284.09 29.95,-428.3 2.2,-50.17 4.64,-100.42 7.22,-152.02"
         inkscape:connector-curvature="0" /><path
         id="path70"
         style="fill:#b5d6ca;fill-opacity:1;fill-rule:nonzero;stroke:none"
         d="m 3805.6,4751.03 c -2.87,-0.97 -5.73,-1.99 -8.57,-3.07 -47.42,-18 -87.76,-50.38 -127.22,-82.26 -59.27,-47.87 -88.46,-68.86 -111.35,-139.77 -21.35,-66.12 -34.71,-135.95 -47.79,-204.09 -67.11,-349.83 -80.08,-698.2 -128.25,-1050.66 -13.11,-95.94 -23.24,-208.73 47.71,-274.63 125.9,97.98 284.15,103.64 436.84,103.77 107.23,0.1 212.07,34.83 319.55,22.86 54.8,-6.1 105.89,-1.64 157.47,2.82 45.11,3.9 90.59,7.8 139.22,4.63 25.14,-1.63 57.16,-1.36 67.07,21.8 -36.07,108.14 -35.45,224.43 -43.62,338.14 -21.12,294.12 -118.56,576.35 -157.88,868.48 -13.36,99.29 -20.49,264.11 -97.39,339.27 -83.57,81.68 -274.18,83.35 -381.57,67.37 -21.75,-3.23 -43.41,-7.62 -64.22,-14.66"
         inkscape:connector-curvature="0" /><path
         id="path72"
         style="fill:#eacdb0;fill-opacity:1;fill-rule:nonzero;stroke:none"
         d="m 3885.35,4755.97 c 1.77,-3.43 4.13,-6.72 7.29,-9.85 12.48,-12.31 29.77,-19.29 46.93,-21.74 22.63,-3.24 45.62,0.51 68.07,4.8 30.32,5.78 29.25,23.54 33.64,51.06 2.4,15.04 3.91,30.2 5.04,45.39 0.62,8.32 -2.6,38.12 2.7,43.95 3.6,3.96 18.26,2.63 24.68,5.98 10.18,5.32 18.69,15.11 24.8,24.62 9.87,15.33 15.29,33.03 20.61,50.47 9.24,30.34 18.49,60.69 27.73,91.03 9.45,31.01 18.95,62.27 21.98,94.54 4.58,48.64 -3.28,117.3 -40,152.87 -33.49,32.44 -82.35,43.8 -127.16,49.53 -59.33,7.58 -120.83,-3.28 -172.08,-34.78 -20.7,-12.72 -40.31,-29.21 -52.53,-51.88 -18.84,-34.96 -17.41,-78.6 -15.38,-119.41 1.87,-37.66 3.74,-75.32 5.61,-112.99 2.15,-43.32 7.54,-93.23 40,-116.72 17.23,-12.48 39.76,-15.14 54.51,-31.14 18.48,-20.03 17.28,-50.09 18.06,-75.49 0.44,-14.52 -0.65,-28.26 5.5,-40.24"
         inkscape:connector-curvature="0" /><path
         id="path74"
         style="fill:#1a3151;fill-opacity:1;fill-rule:nonzero;stroke:none"
         d="m 4073.17,5242.85 c 2.04,-3.53 3.75,-7.2 5.07,-11.01 6.92,-19.96 2.25,-42.5 9,-62.53 10.71,-31.74 47.75,-50.82 53.33,-83.86 4.57,-27.02 -13.89,-52.7 -15.45,-80.05 -1.7,-29.89 17.44,-58.18 14.47,-87.67 -2.58,-25.63 -18.83,-61.64 -34.13,-82.18 4.74,6.37 47.63,4.1 58.76,10.9 17.05,10.41 18.99,16.97 24.06,34.74 5.04,17.64 1.14,35.03 8.99,53.1 9.63,22.16 29.42,38.44 36.35,62.08 9.45,32.26 -7.72,66.3 -6.38,99.89 2.03,50.85 45.98,98.75 30.03,147.07 -9.36,28.35 -36.89,46.47 -52.37,71.99 -11.75,19.39 -16.09,42.23 -24.24,63.38 -8.15,21.15 -22.17,42.32 -43.91,48.73 -12.08,3.56 -25.08,2.1 -37.46,4.41 -21.4,3.98 -39.18,18.75 -59.8,25.73 -29.5,9.97 -81.54,-19.85 -98.76,-44.86 -17.09,-24.81 -8.47,-45.91 9.01,-67.85 29.09,-36.54 99.41,-60.46 123.43,-102.01"
         inkscape:connector-curvature="0" /><path
         id="path76"
         style="fill:#1a3151;fill-opacity:1;fill-rule:nonzero;stroke:none"
         d="m 3675.9,5393.04 c -17.67,-12.98 -39.5,-22.34 -55.65,-37.5 -31.47,-29.55 -37.45,-76.8 -38.59,-119.96 -1.01,-38.42 -17.82,-72.57 -13.66,-112.62 2.8,-26.89 14.23,-54.09 36.11,-69.97 27.26,-19.78 70.06,-23.02 82.22,-54.43 13.2,-34.11 -22.13,-77.07 -0.68,-106.7 11.83,-16.35 35.03,-18.75 51.96,-29.73 18.89,-12.26 28.59,-34.14 40.13,-53.48 11.53,-19.34 28.86,-38.71 51.37,-39.19 0.91,34.24 1.92,61.37 -12.7,92.68 -8.52,18.24 -33.61,51.9 -14.34,71.65 12.15,16.42 40.84,21.76 41.58,42.17 0.35,9.59 -6.34,17.75 -11.62,25.76 -20.43,31 -22.51,72.3 -8.66,106.75 13.85,34.44 42.39,61.95 75.8,78.14 39.16,18.96 32.85,28.53 44.23,66.02 10.48,34.5 30.05,42.59 61.12,55.17 27.88,11.29 36.84,18.32 47.14,44.42 7.53,19.1 16.8,41.98 5.88,63.29 -8.68,16.94 -24.31,29.05 -39.45,40.6 -31.62,24.1 -67.15,49.45 -106.8,46.6 -22.03,-1.59 -42.75,-11.94 -64.8,-13.19 -14.7,-0.84 -29.33,2.42 -44.05,2.91 -25.1,0.84 -51.57,-6.79 -71.89,-21.73 -20.5,-15.07 -19.92,-30.85 -31.3,-52.24 -5.58,-10.47 -13.87,-18.47 -23.35,-25.42"
         inkscape:connector-curvature="0" /><path
         id="path78"
         style="fill:#1a3151;fill-opacity:1;fill-rule:nonzero;stroke:none"
         d="m 3764.7,5533.81 c 3.86,23.86 1.38,54.94 -21.4,63 -12.48,4.41 -26.47,-0.42 -39.44,2.22 -27.65,5.62 -37.07,39.1 -51.57,63.31 -2.17,3.62 -4.75,7.29 -8.61,9.01 -5.51,2.46 -11.84,0.28 -17.84,-0.45 -27.51,-3.36 -48.42,23.79 -74.33,33.64 -32.08,12.18 -72.43,-7.87 -82.09,-40.79 -3.97,-13.53 -3.28,-28.06 -7.01,-41.66 -15.1,-55.08 -95.76,-78.52 -97.8,-135.6 -1.38,-38.57 36.37,-75.52 21.69,-111.22 -9.38,-22.83 -38.75,-38.39 -35.39,-62.84 2.16,-15.73 18.91,-26.44 34.79,-26.22 15.87,0.22 30.46,8.93 42.42,19.38 18.98,16.57 33.29,37.85 51.37,55.4 18.09,17.55 42.2,31.79 67.21,28.67 24.23,-3.02 46.14,-21.88 70.22,-17.85 19.25,3.23 33.55,20.41 52.46,25.25 17.7,4.53 36.1,-2.42 54.33,-3.52 18.24,-1.1 40.63,8.39 41.12,26.65 0.12,4.42 -1.12,9 0.27,13.2 3.89,11.77 24,11.09 27.82,22.89 -9.52,14.68 -22.94,9.42 -29.77,28.58 -5.28,14.83 -0.87,33.97 1.55,48.95"
         inkscape:connector-curvature="0" /><path
         id="path80"
         style="fill:#9ea6ad;fill-opacity:1;fill-rule:nonzero;stroke:none"
         d="M 3662.87,1831.4 H 7416.75 V 4437.66 H 3662.87 Z"
         inkscape:connector-curvature="0" /><path
         id="path82"
         style="fill:#b1b8bd;fill-opacity:1;fill-rule:nonzero;stroke:none"
         d="m 3750.38,3775.89 v 578.91 h 896 c -386.69,0 -716.15,-217.62 -841.7,-522.58 -17.25,-17.9 -35.35,-36.67 -54.3,-56.33"
         inkscape:connector-curvature="0" /><path
         id="path84"
         style="fill:#959ca3;fill-opacity:1;fill-rule:nonzero;stroke:none"
         d="M 7416.75,1831.4 H 5303.72 c 1917.83,0 2113.03,1334.21 2113.03,1334.21 V 1831.4"
         inkscape:connector-curvature="0" /><path
         id="path86"
         style="fill:#a9b5bc;fill-opacity:1;fill-rule:nonzero;stroke:none"
         d="m 7031.49,6253.4 c -0.17,0.95 -0.29,1.91 -0.47,2.86 l 1.65,-1.47 -1.18,-1.39"
         inkscape:connector-curvature="0" /><path
         id="path88"
         style="fill:#145566;fill-opacity:1;fill-rule:nonzero;stroke:none"
         d="m 1790.71,994.398 -6.02,-84.449 162.9,-96.469 90.46,78.442 -78.44,90.457 -162.89,96.481 -6.01,-84.462"
         inkscape:connector-curvature="0" /><path
         id="path90"
         style="fill:#9ea6ad;fill-opacity:1;fill-rule:nonzero;stroke:none"
         d="m 1706.83,3562.62 -18.25,-256.49 262.87,-1135.78 -167.65,-1148.1 165.14,-45.43 487.95,1373.8 16.46,415.97 -97.66,857.71 -648.86,-61.68"
         inkscape:connector-curvature="0" /><path
         id="path92"
         style="fill:#9ea6ad;fill-opacity:1;fill-rule:nonzero;stroke:none"
         d="M 2767.2,3411.24 2871.55,2335.55 2787.14,929.91 2631.12,916.59 2423.24,2189.2 2100.4,3451.99 l 666.8,-40.75"
         inkscape:connector-curvature="0" /><path
         id="path94"
         style="fill:#145566;fill-opacity:1;fill-rule:nonzero;stroke:none"
         d="m 2630.44,935.238 7.2,-84.359 175.91,-69.957 77.16,91.558 -91.56,77.161 -168.71,-14.403"
         inkscape:connector-curvature="0" /><path
         id="path96"
         style="fill:#b5d6ca;fill-opacity:1;fill-rule:nonzero;stroke:none"
         d="m 1556.8,3428.37 c -12.33,-97.85 -22.97,-230.34 14.2,-239.08 6.97,-1.64 14.1,1.14 20.62,3.87 68.84,28.81 120.13,74.09 187.92,101.79 71.05,29.03 150.03,40.18 226.94,45.74 115.05,8.91 231.8,9.72 347.05,-0.21 90.61,-7.81 180.68,-24.95 269.96,-41.79 74.28,-14.02 141.69,-43.46 218.57,-46.1 78.8,-2.69 158.35,13.27 229.49,47.43 2.61,1.25 5.38,2.69 6.67,5.28 1.42,2.82 0.68,6.2 -0.09,9.27 -11.43,45.45 -18.42,90 -43.67,129.28 -28.2,43.86 -45.89,97.7 -64.53,146.23 -38.85,101.14 -74.37,206.6 -97.86,312.49 -37.11,144.47 -81.95,286.09 -117.3,430.84 -24.5,100.33 -45.78,202.07 -83.13,298.65 -29.25,75.63 -83.77,187.33 -159.28,227.13 -25.56,13.47 -54.88,17.49 -83.52,21.29 -86.88,11.55 -173.76,23.1 -260.63,34.65 -31.67,4.21 -64.65,8.31 -94.96,-1.77 -45.44,-15.11 -74.7,-58.14 -100.55,-98.43 -115.95,-180.68 -198.6,-379.88 -254.95,-588.29 -29.41,-108.83 -57.51,-218.01 -81.98,-327.99 -27.3,-122.73 -50.14,-246.49 -65.2,-371.26 -1.68,-13.86 -7.92,-52.53 -13.77,-99.02"
         inkscape:connector-curvature="0" /><path
         id="path98"
         style="fill:#ffffff;fill-opacity:1;fill-rule:nonzero;stroke:none"
         d="m 2247.38,4419.67 c -1.85,-49.72 -14.02,-98.4 -26.13,-146.67 -73.76,-294.01 -147.52,-588.01 -221.28,-882.01 234.18,-22.25 468.37,-44.5 702.55,-66.75 3.13,112.7 6.27,225.39 9.41,338.09 2.01,72.25 4.01,144.76 -3.82,216.67 -12.64,116.01 -50.52,227.9 -88.16,338.74 -69.56,204.8 -139.12,409.61 -208.67,614.41 -3.72,10.95 -7.66,22.28 -15.74,30.72 -9.67,10.11 -23.83,14.64 -37.43,18.48 -65.68,18.57 -140.18,36.23 -208.41,33.35 -23.16,-59.44 27.79,-172.25 44.85,-231.56 24.83,-86.29 56.2,-172.64 52.83,-263.47"
         inkscape:connector-curvature="0" /><path
         id="path100"
         style="fill:#eacdb0;fill-opacity:1;fill-rule:nonzero;stroke:none"
         d="m 2334.74,4840.85 c -48.27,7.14 -96.55,14.28 -144.83,21.42 1.4,38.9 5.91,77.67 13.47,115.84 -0.92,-4.63 -74.27,44.34 -80.18,54.34 -16.99,28.77 -14.63,73.88 -19.55,106.52 -10.49,69.54 -19.04,147.49 22.98,203.87 43.52,58.39 125.91,71.37 198.52,65.74 91.15,-7.06 189.92,-44.1 228.57,-126.96 34.91,-74.84 -29.15,-173.23 -52.1,-246.16 -11.31,-35.96 -27.1,-76.7 -62.85,-88.66 -18.98,-6.36 -40.87,-3.18 -58.25,-13.1 -30.66,-17.49 -28.78,-61.91 -45.78,-92.85"
         inkscape:connector-curvature="0" /><path
         id="path102"
         style="fill:#1a3151;fill-opacity:1;fill-rule:nonzero;stroke:none"
         d="m 2710.95,5401.47 c 10.62,49.69 21.24,99.38 31.87,149.07 3.94,18.46 7.89,37.62 3.7,56.02 -6.97,30.6 -35.07,52.19 -64.36,63.47 -29.28,11.28 -60.98,14.88 -90.77,24.76 -31.8,10.54 -61.93,28.32 -95.37,30.31 -63.59,3.78 -118.14,-49.9 -181.75,-53.41 -88.07,-4.85 -163.5,43.1 -226.4,-53.43 -11.55,-17.73 -16.45,-39.02 -26.93,-57.41 -13.53,-23.76 -35.5,-41.33 -53.39,-62.01 -78.68,-90.91 -71.97,-241.98 2.44,-333.67 36.07,-44.46 48.75,-82.6 102.88,-101.28 -20.04,54.27 34.84,256.45 106.78,272.31 19.05,4.19 72.03,-24.08 92.12,-29.18 44.5,-11.3 87.68,-23.1 128.37,-45.12 60.38,-32.68 126.95,-58.32 194.71,-70.5 8.67,-1.56 18.4,-2.9 25.6,2.18 6.76,4.78 8.98,13.65 10.72,21.75 13.26,62.05 26.52,124.09 39.78,186.14"
         inkscape:connector-curvature="0" /><path
         id="path104"
         style="fill:#5bbcb9;fill-opacity:1;fill-rule:nonzero;stroke:none"
         d="m 5247.97,6476.26 c -34.29,229.24 122.46,442.89 350.71,479.64 -1.38,7.16 -2.71,14.34 -3.8,21.62 -41.87,279.99 151.16,540.91 431.14,582.78 152.34,22.78 298.95,-24.09 407.79,-116.56 71.28,110.8 188.02,191.57 328.56,212.59 250.12,37.4 483.74,-127.92 534.24,-372.61 10.47,2.39 21.05,4.53 31.84,6.14 230.84,34.53 445.95,-124.61 480.48,-355.45 27.77,-185.7 -69.84,-361.13 -229.22,-440.65 28.18,-45.68 47.8,-97.66 56.24,-154.1 33.41,-223.39 -120.59,-431.56 -343.98,-464.97 -17.13,-2.56 -34.16,-3.97 -51.03,-4.37 l 64.7,-432.66 c 2.53,-18.8 -20.43,-29.91 -28.67,-21.36 l -331.77,343.73 c -57.62,-52.02 -130.58,-88.3 -213.11,-100.65 -149.68,-22.38 -292.44,39.45 -380.46,149.84 -62.91,-53.84 -141.15,-91.33 -229.08,-104.48 -249.46,-37.3 -481.92,134.67 -519.23,384.13 -1.62,10.85 -2.71,21.65 -3.55,32.42 -177.35,28.06 -323.83,167.97 -351.8,354.97"
         inkscape:connector-curvature="0" /><path
         id="path106"
         style="fill:#ffffff;fill-opacity:1;fill-rule:nonzero;stroke:none"
         d="m 6051.33,6551.09 c 61.72,9.23 76.17,-86.68 14.34,-95.93 -61.72,-9.23 -76.17,86.68 -14.34,95.93"
         inkscape:connector-curvature="0" /><path
         id="path108"
         style="fill:#ffffff;fill-opacity:1;fill-rule:nonzero;stroke:none"
         d="m 6483,6615.65 c 61.72,9.23 76.17,-86.68 14.34,-95.93 -61.72,-9.23 -76.17,86.68 -14.34,95.93"
         inkscape:connector-curvature="0" /><path
         id="path110"
         style="fill:#ffffff;fill-opacity:1;fill-rule:nonzero;stroke:none"
         d="m 7022.58,6696.35 c 61.73,9.23 76.18,-86.68 14.35,-95.93 -61.72,-9.23 -76.17,86.68 -14.35,95.93"
         inkscape:connector-curvature="0" /><path
         id="path112"
         style="fill:#333333;fill-opacity:1;fill-rule:nonzero;stroke:none"
         d="m 7103.1,3913.89 c -52.71,-42.08 -105.42,-84.16 -158.12,-126.24 26.82,-41.1 53.11,-82.55 78.54,-124.59 12.73,-21.06 -21.55,-37.66 -34.17,-16.8 -24,39.7 -48.82,78.83 -74.12,117.64 -51.33,-40.98 -102.66,-81.96 -153.99,-122.94 -19.15,-15.28 -44.04,13.61 -24.83,28.95 52.63,42.02 105.27,84.04 157.9,126.06 -30.91,46.5 -62.73,92.37 -95.54,137.62 -14.33,19.76 14.37,44.86 28.81,24.95 33.1,-45.65 65.2,-91.97 96.42,-138.86 51.43,41.05 102.85,82.11 154.27,123.16 19.14,15.28 44.04,-13.62 24.83,-28.95"
         inkscape:connector-curvature="0" /><path
         id="path114"
         style="fill:#333333;fill-opacity:1;fill-rule:nonzero;stroke:none"
         d="m 4389.27,3074.6 c 2.49,-1.05 5.25,-1.47 8.1,-1.29 3.87,-0.63 7.74,-1.2 11.62,-2.09 234.23,-53.27 153.81,-443.14 -78.96,-406.21 10.03,12.88 1.74,36.61 -17.32,30.82 -138.83,-42.13 -164.01,166.91 -130.04,253.54 33.3,84.9 117.9,136.13 206.6,125.23 z m 2524.78,285.07 c -11.55,70.83 -30.08,138.99 -55.35,206.07 -5.58,14.82 -24.41,12.14 -32.74,2.44 -50.66,-59 -90.91,-123.11 -122.96,-193.98 -8.32,-18.4 16.58,-31.98 30.33,-20.91 17.99,14.49 34.35,29.97 49.51,46.32 -87.57,-280.74 -172.33,-625.87 -489.19,-690.78 -283.4,-58.06 -443.2,258.4 -566.14,459.62 -105.46,172.61 -217.4,359.59 -393.68,467.96 -188.32,115.75 -420.16,107.78 -611.48,3.24 -192.97,-105.45 -347.42,-298.99 -343.16,-525.6 -120.4,6.98 -224.21,-80.6 -246.11,-201.06 -18.44,-101.48 33.03,-265.8 151.04,-260.92 -1.31,-7.97 2.07,-16.16 12.27,-18.8 133.51,-34.62 260.63,50.58 287.47,185.66 24.49,123.19 -40.49,260.47 -166.74,289.5 -12.98,308.26 304.29,568.24 595.69,575.46 481.57,11.93 632.81,-535.04 887.43,-840.94 76.07,-91.39 172.97,-167.67 295.06,-178.06 113.9,-9.7 223.57,37.19 310.61,108.57 211.66,173.62 255.8,457.11 342.24,703.85 12,-40.96 21.64,-82.44 28.58,-125.05 3.96,-24.3 41.27,-16.85 37.32,7.41"
         inkscape:connector-curvature="0" /><path
         id="path116"
         style="fill:#ebb044;fill-opacity:1;fill-rule:nonzero;stroke:none"
         d="m 4194.03,2802.48 c -2.22,11.76 -3.12,23.87 -3.36,35.82 -2.76,138.72 68.73,231.05 211.41,197.57 73.46,-17.24 116.14,-109.77 115.79,-178.93 -0.23,-46.47 -14.26,-97.59 -53.51,-122.17 -63.85,-39.98 -214.75,-44.62 -257.44,30.89 -6.45,11.41 -10.46,23.9 -12.89,36.82"
         inkscape:connector-curvature="0" /><path
         id="path118"
         style="fill:#145566;fill-opacity:1;fill-rule:nonzero;stroke:none"
         d="m 5280.88,4568.15 -1001.64,1419.72 -100.41,-70.84 1001.64,-1419.72 100.41,70.84"
         inkscape:connector-curvature="0" /><path
         id="path120"
         style="fill:#3ababa;fill-opacity:1;fill-rule:nonzero;stroke:none"
         d="M 5381.29,4639 4379.66,6058.71 4279.24,5987.87 5280.88,4568.15 5381.29,4639"
         inkscape:connector-curvature="0" /><path
         id="path122"
         style="fill:#145566;fill-opacity:1;fill-rule:nonzero;stroke:none"
         d="M 5481.71,4709.84 4480.07,6129.56 4379.66,6058.71 5381.29,4639 l 100.42,70.84"
         inkscape:connector-curvature="0" /><path
         id="path124"
         style="fill:#9e9c9c;fill-opacity:1;fill-rule:nonzero;stroke:none"
         d="m 4159.72,5944.11 19.11,-27.08 301.24,212.53 -19.11,27.08 -301.24,-212.53"
         inkscape:connector-curvature="0" /><path
         id="path126"
         style="fill:#dedfde;fill-opacity:1;fill-rule:nonzero;stroke:none"
         d="m 4140.61,5971.19 19.11,-27.08 301.24,212.53 -19.11,27.08 -301.24,-212.53"
         inkscape:connector-curvature="0" /><path
         id="path128"
         style="fill:#9e9c9c;fill-opacity:1;fill-rule:nonzero;stroke:none"
         d="m 4121.51,5998.28 19.1,-27.09 301.24,212.53 -19.1,27.09 -301.24,-212.53"
         inkscape:connector-curvature="0" /><path
         id="path130"
         style="fill:#f0f1f1;fill-opacity:1;fill-rule:nonzero;stroke:none"
         d="m 3980.27,6198.46 122.13,-173.1 301.24,212.53 -122.13,173.1 c -48.43,68.65 -143.33,85.03 -211.97,36.6 l -52.67,-37.15 c -68.64,-48.43 -85.03,-143.33 -36.6,-211.98"
         inkscape:connector-curvature="0" /><path
         id="path132"
         style="fill:#dedfde;fill-opacity:1;fill-rule:nonzero;stroke:none"
         d="m 4102.4,6025.36 19.11,-27.08 301.24,212.53 -19.11,27.08 -301.24,-212.53"
         inkscape:connector-curvature="0" /><path
         id="path134"
         style="fill:#f8e4b8;fill-opacity:1;fill-rule:nonzero;stroke:none"
         d="M 5481.71,4709.84 5180.47,4497.31 5593,4232.34 Z"
         inkscape:connector-curvature="0" /><path
         id="path136"
         style="fill:#333333;fill-opacity:1;fill-rule:nonzero;stroke:none"
         d="m 5566.99,4343.94 -70.41,-49.67 96.42,-61.93 z"
         inkscape:connector-curvature="0" /><path
         id="path138"
         style="fill:#9dadb8;fill-opacity:1;fill-rule:nonzero;stroke:none"
         d="m 3327.47,2296.5 c -154.05,5.73 -313.4,11.95 -457.2,17.69 l 1.28,21.36 -46.6,480.38 c 178.99,185.61 385.54,399.86 575.13,596.53 -5.4,-47.02 -11.22,-94.13 -17.66,-141.28 -13.11,-95.94 -23.24,-208.73 47.71,-274.63 7.67,5.97 15.47,11.6 23.37,16.9 -7.48,-38.87 -14.4,-77.86 -20.82,-116.93 -32.79,-199.74 -68.23,-400.14 -105.21,-600.02"
         inkscape:connector-curvature="0" /><path
         id="path140"
         style="fill:#13253d;fill-opacity:1;fill-rule:nonzero;stroke:none"
         d="m 3662.87,2284.62 c -102.44,3.38 -217.37,7.49 -335.4,11.88 36.98,199.88 72.42,400.28 105.21,600.02 6.42,39.07 13.34,78.06 20.82,116.93 63.99,42.96 135.3,64.72 209.37,75.72 v -804.55"
         inkscape:connector-curvature="0" /><path
         id="path142"
         style="fill:#88a097;fill-opacity:1;fill-rule:nonzero;stroke:none"
         d="m 3430.13,2996.55 c -70.95,65.9 -60.82,178.69 -47.71,274.63 6.44,47.15 12.26,94.26 17.66,141.28 93.5,97 182.88,189.73 262.79,272.64 v -595.93 c -74.07,-11 -145.38,-32.76 -209.37,-75.72 -7.9,-5.3 -15.7,-10.93 -23.37,-16.9"
         inkscape:connector-curvature="0" /><path
         id="path144"
         style="fill:#767c82;fill-opacity:1;fill-rule:nonzero;stroke:none"
         d="m 4018.33,2275.72 c -62.46,0 -193.36,3.54 -355.46,8.9 v 804.55 595.93 c 30.67,31.81 59.94,62.18 87.51,90.79 v -217.23 c 0,96.1 19.18,188.26 54.3,273.56 120.05,124.56 196.6,203.99 196.6,203.99 65.18,-64.31 77.51,-1745.57 56.61,-1758.84 -1.79,-1.13 -15.65,-1.65 -39.56,-1.65"
         inkscape:connector-curvature="0" /><path
         id="path146"
         style="fill:#858a8e;fill-opacity:1;fill-rule:nonzero;stroke:none"
         d="m 3750.38,3558.66 v 217.23 c 18.95,19.66 37.05,38.43 54.3,56.33 -35.12,-85.3 -54.3,-177.46 -54.3,-273.56"
         inkscape:connector-curvature="0" /><path
         id="path148"
         style="fill:#767c82;fill-opacity:1;fill-rule:nonzero;stroke:none"
         d="m 2386.22,2334 c -16.51,0.69 -25.4,1.07 -25.4,1.07 4.23,4.34 10.92,11.25 19.89,20.51 l 5.51,-21.58"
         inkscape:connector-curvature="0" /><path
         id="path150"
         style="fill:#767c82;fill-opacity:1;fill-rule:nonzero;stroke:none"
         d="m 2870.27,2314.19 c -228.48,9.12 -417.7,17.02 -484.05,19.81 l -5.51,21.58 c 62.39,64.46 234.39,242.73 444.24,460.35 l 46.6,-480.38 -1.28,-21.36"
         inkscape:connector-curvature="0" /><path
         id="path152"
         style="fill:#145566;fill-opacity:1;fill-rule:nonzero;stroke:none"
         d="M 3999.36,2335.07 H 2278.94 c 39.65,260.61 68.07,568.42 64.84,913.74 -2.56,273.29 -1.37,509.41 -41.19,771.13 573.48,0 1123.3,35.56 1696.77,35.56 24.39,-240.28 40.67,-502.38 43.2,-783.54 3.06,-340.53 -14.54,-654.42 -43.2,-936.89"
         inkscape:connector-curvature="0" /><path
         id="path154"
         style="fill:#ffffff;fill-opacity:1;fill-rule:nonzero;stroke:none"
         d="m 2893.43,2999.52 c -82.03,-74.31 -178.66,-129.9 -282.87,-166.27 -15.81,253.59 32.88,507.29 6.61,760.74 98.03,41.94 208.37,74.08 307.11,22.37 104.63,-54.82 140.49,-205.05 139.63,-314.03 -0.97,-123.71 -82.96,-223.52 -170.48,-302.81 z m 195.58,351.96 c -12.23,112.92 -52.47,245.29 -164.68,295.53 -128.36,57.47 -265.95,-2.35 -383.56,-57.2 -16.18,-7.55 -2.1,-31.5 14.02,-23.99 11.62,5.42 23.53,10.94 35.67,16.42 24,-253.63 -24.67,-507.5 -6.73,-761.25 -3.63,-5.49 -2.69,-13.2 1.39,-17.92 0.47,-5.61 0.76,-11.21 1.3,-16.81 1.69,-17.64 29.48,-17.81 27.78,0 -0.59,6.07 -0.92,12.14 -1.42,18.22 227.14,77.82 505.2,279.65 476.23,547"
         inkscape:connector-curvature="0" /><path
         id="path156"
         style="fill:#ffffff;fill-opacity:1;fill-rule:nonzero;stroke:none"
         d="m 3419.69,2955.22 c -19.89,-91.15 -93.3,-176.38 -192.63,-176.27 -122.97,0.13 -148.77,130.35 -127.79,228.34 9.5,44.36 30.47,86.29 65.16,116.25 20.53,17.74 55.7,37.94 88.7,41.98 2.54,-5.57 8.25,-9.79 15.9,-8.17 8.3,1.77 16.23,2.69 23.89,2.98 3.08,-1.46 6.09,-3.14 8.93,-5.22 6.91,-5.08 13.67,-2.15 17.29,3.4 82.9,-15.72 118.24,-122.22 100.55,-203.29 z m -119.48,232.44 c -40.99,16.36 -96.52,-3.6 -130.74,-25.72 -51.4,-33.23 -84.37,-88.02 -96.98,-147.26 -23.53,-110.53 6.42,-252.49 139.65,-262.92 128.35,-10.05 225.47,105.57 239.06,224.8 11.38,99.89 -48.95,207.96 -150.99,211.1"
         inkscape:connector-curvature="0" /><path
         id="path158"
         style="fill:#ffffff;fill-opacity:1;fill-rule:nonzero;stroke:none"
         d="m 3676.61,2871 -1.62,2.18 c -15.98,16.54 -37.56,6 -46.48,-10.96 -8.36,-10.92 -15.21,-22.94 -13.3,-37.38 2,-15.11 13.72,-28.24 29.76,-27.99 16.99,0.27 29.61,14.02 34.1,29.44 6.48,6.36 10.22,15.51 8.27,26.59 -1.29,7.29 -5.27,13.71 -10.73,18.12"
         inkscape:connector-curvature="0" /><path
         id="path160"
         style="fill:#ffffff;fill-opacity:1;fill-rule:nonzero;stroke:none"
         d="m 3679.63,3400.58 c 1.98,-1.49 4.36,-2.28 6.83,-2.42 -2.96,-14.93 -6.12,-28.96 -7.54,-39.84 0.22,14.09 0.43,28.18 0.71,42.26 z m 2.19,92.86 c 1.19,-0.12 2.38,-0.24 3.56,-0.38 -0.87,-1.7 -1.56,-3.54 -1.76,-5.65 -0.49,-5.06 -1.34,-9.89 -2.29,-14.65 0.18,6.89 0.3,13.78 0.49,20.68 z m 58.41,4.54 c -12.96,23 -48.78,22.75 -71.95,23.97 -7.65,0.41 -13.67,-6.69 -13.88,-13.88 -4.75,-163.38 -5.98,-326.8 -3.7,-490.23 0.14,-10.06 9.02,-14.47 16.71,-13.2 1.66,-17.02 27.2,-17.02 27.66,0.7 3.22,121.2 13.25,242.08 31.5,361.97 4.05,26.57 8.53,53.06 13.24,79.53 2.88,16.16 9.16,35.63 0.42,51.14"
         inkscape:connector-curvature="0" /><path
         id="path162"
         style="fill:#e5d1bd;fill-opacity:1;fill-rule:nonzero;stroke:none"
         d="m 2691.01,3525.03 c -1.07,3.03 -2.21,6.15 -4.04,8.67 -17.07,23.43 -39.99,25.43 -62.75,43.23 -10.15,7.94 -7.17,40.95 -32.6,32.17 -9.39,-3.23 -31.3,-14.42 -51.25,-21.52 -29.09,-10.34 -72.22,-5.87 -105.8,4 -45.14,13.26 -92.61,28.34 -134.93,48.04 -88.89,41.38 -183.28,97.23 -262.78,154.84 89.29,135.52 94.26,321.93 12.32,462.03 -8.56,14.64 -18.45,29.25 -32.93,38.09 -12.23,7.47 -26.8,10.19 -41.12,11.12 -151.35,9.83 -154.19,-134 -161.33,-249.79 -4.45,-72.27 -4.39,-145.92 1.87,-218.1 8.75,-101.09 74.06,-159.15 160.45,-207.27 91.55,-50.99 185.2,-101.01 285.91,-131.5 48.94,-14.83 97.15,-19.37 147.12,-27.6 49.38,-8.14 43,-29.67 84.39,-47.89 23.1,-10.16 44.73,-24.88 69.41,-30.6 44.25,-10.24 79.84,20.33 113.56,43.98 8.39,5.89 14.08,9.85 18.46,18.4 7.11,13.92 4.41,28.84 2.25,43.75 -1.27,8.82 -3.26,17.59 -6.21,25.95"
         inkscape:connector-curvature="0" /><path
         id="path164"
         style="fill:#b5d6ca;fill-opacity:1;fill-rule:nonzero;stroke:none"
         d="m 1737.08,3999.93 c 2.29,-55.9 6.94,-110.65 13.48,-163.21 9.75,-78.36 22.72,-163.36 80.01,-217.71 22.08,-20.94 49.24,-35.62 76.11,-49.91 127.42,-67.73 256.53,-132.26 387.18,-193.51 47.63,58.96 86.24,125.18 114.1,195.67 7.81,19.78 14.84,41.73 8.13,61.92 -9.96,29.98 -44.66,42.57 -75.05,51.21 -49.5,14.09 -99,28.17 -148.49,42.25 -16.06,4.58 -33.65,10.28 -42.15,24.65 -5.55,9.39 -6.11,20.81 -6.35,31.7 -4.59,206.12 31.71,378.35 79.52,577.26 21.06,87.69 42.21,178.7 24.72,267.17 -37.36,188.89 -286.03,238.07 -380.83,62.87 -108.09,-199.76 -140.04,-455.33 -130.38,-690.36"
         inkscape:connector-curvature="0" /><path
         id="path166"
         style="fill:#e5d1bd;fill-opacity:1;fill-rule:nonzero;stroke:none"
         d="m 7127.34,3887.86 c 8.71,9.86 11.47,13.56 25.64,19.94 14.17,6.37 31.02,8.56 47.88,19.67 12.24,8.06 9.15,37.48 37.46,26.31 10.46,-4.13 28.72,-17.24 48.7,-24.86 29.13,-11.11 70.64,-10.16 105.74,-2.45 137.89,30.31 276.48,58.04 417.66,72.25 8.05,0.8 16.04,1.35 22.81,6.12 12.12,8.54 13.73,22.45 16.82,36.1 14.34,63.28 30.52,125.28 56.72,185.02 23.38,53.29 51.02,104.05 96.01,141.74 44.99,37.69 104.38,56.58 159.69,38.9 41.42,-13.23 75.8,-42.11 84.4,-85.29 21.34,-107.08 -77.03,-187.19 -135.99,-262.25 -55.8,-71.02 -103.5,-131.26 -161.91,-196.38 -7.22,-8.04 -14.08,-15.55 -24.19,-20.13 -10.11,-4.58 -21.82,-4.83 -32.8,-4.69 -141.42,1.87 -279.23,7.31 -417.68,-21.4 -38.05,-7.89 -72.79,0.16 -108.6,-12 -22.86,-7.76 -34.79,-30.42 -55.81,-41.27 -21.02,-10.85 -45.85,-21.87 -69.39,-23.46 -46.42,-3.13 -74.96,30.98 -106.59,59.05 -25.26,22.43 -44.43,28.9 -77.31,20.15 -3.86,-1.03 -8.04,-3.52 -12.44,-2.54 -12.76,2.83 -18.19,17.78 -11.57,29.06 6.61,11.28 18.35,14.63 30.49,18.77 12.15,4.14 25.88,7.58 39.04,8.32 5.64,0.32 11.95,0.09 16.05,4.08 4.1,4 5.48,7.06 9.17,11.24"
         inkscape:connector-curvature="0" /><path
         id="path168"
         style="fill:#aab4b5;fill-opacity:1;fill-rule:nonzero;stroke:none"
         d="m 8109.26,4098.09 c -79.65,30.14 -163.17,48.57 -240.8,85.06 28.16,67.6 109.6,342.63 123.62,375.56 53.5,125.68 63.85,179.83 137.59,246.19 157.46,141.72 344.44,47.74 336.76,-153.4 -8.34,-218.35 -125.34,-405.78 -252.07,-574.66 -2.76,-3.67 -6.51,-6.54 -11.3,-8.33 -4.8,-1.8 -12.16,0.01 -17.95,2.3 -24.77,9.77 -50.7,17.76 -75.85,27.28"
         inkscape:connector-curvature="0" /><path
         id="path170"
         style="fill:#e5d1bd;fill-opacity:1;fill-rule:nonzero;stroke:none"
         d="m 8159.25,1094.05 c -27.87,-0.94 -54.65,5.31 -82.01,7.84 -14.13,271.34 11.51,555.73 22.63,828.37 69.71,-3.72 139.42,-7.44 209.12,-11.16 -48.54,-145.71 -83.19,-296.03 -103.46,-448.27 -3.21,-24.13 -42.3,-376.65 -46.28,-376.78"
         inkscape:connector-curvature="0" /><path
         id="path172"
         style="fill:#1a3151;fill-opacity:1;fill-rule:nonzero;stroke:none"
         d="m 8068.8,1154.52 c -17.21,3.07 -27.36,-4.59 -38.83,-15.07 -6.66,-6.09 -11.19,-14.7 -19.23,-19.06 -8.03,-4.36 -15.91,-5.21 -25.46,-6.17 -50.29,-5.05 -166.14,-2.96 -104.42,-87.06 56.05,-76.379 204.9,-45.969 290.89,-25.22 5.66,1.36 11.63,2.21 15.77,6.59 4.15,4.37 6.94,10.61 8.71,17.07 9.81,35.94 23.22,80.81 -20.96,95.87 -18.85,6.42 -36.21,-6.06 -56.17,0.86 -16.34,5.67 -33.1,29.13 -50.3,32.19"
         inkscape:connector-curvature="0" /><path
         id="path174"
         style="fill:#5bbcb9;fill-opacity:1;fill-rule:nonzero;stroke:none"
         d="m 7943.58,1766.6 c 142.15,2.76 284.31,5.51 426.46,8.27 115,547.43 216.27,1097.74 303.68,1650.25 6.78,42.83 13.38,87.38 1.03,128.96 -23.34,78.63 -107.56,123.5 -188.19,138.57 -125.31,23.41 -355.53,-9.2 -419.79,-139.47 -67.91,-137.69 -56.51,-383.59 -72.98,-535.73 -44.94,-415.18 -61.77,-833.4 -50.21,-1250.85"
         inkscape:connector-curvature="0" /><path
         id="path176"
         style="fill:#e5d1bd;fill-opacity:1;fill-rule:nonzero;stroke:none"
         d="m 8972.2,1094.05 c 27.88,-0.94 54.65,5.31 82.02,7.84 14.13,271.34 -11.51,555.73 -22.64,828.37 -69.7,-3.72 -139.41,-7.44 -209.12,-11.16 48.54,-145.71 83.2,-296.03 103.46,-448.27 3.21,-24.13 42.31,-376.65 46.28,-376.78"
         inkscape:connector-curvature="0" /><path
         id="path178"
         style="fill:#1a3151;fill-opacity:1;fill-rule:nonzero;stroke:none"
         d="m 9062.66,1154.52 c 17.21,3.07 27.36,-4.59 38.83,-15.07 6.66,-6.09 11.19,-14.7 19.22,-19.06 8.04,-4.36 15.92,-5.21 25.47,-6.17 50.29,-5.05 166.14,-2.96 104.42,-87.06 -56.05,-76.379 -204.91,-45.969 -290.89,-25.22 -5.66,1.36 -11.63,2.21 -15.78,6.59 -4.14,4.37 -6.93,10.61 -8.7,17.07 -9.81,35.94 -23.23,80.81 20.96,95.87 18.85,6.42 36.21,-6.06 56.16,0.86 16.35,5.67 33.11,29.13 50.31,32.19"
         inkscape:connector-curvature="0" /><path
         id="path180"
         style="fill:#5bbcb9;fill-opacity:1;fill-rule:nonzero;stroke:none"
         d="m 9187.88,1766.6 c -142.15,2.76 -284.31,5.51 -426.46,8.27 -115,547.43 -216.27,1097.74 -303.68,1650.24 -6.78,42.84 -13.38,87.39 -1.04,128.97 23.35,78.63 107.57,123.5 188.2,138.57 125.3,23.41 355.53,-9.19 419.79,-139.47 67.91,-137.69 56.51,-383.59 72.98,-535.73 44.94,-415.18 61.77,-833.4 50.21,-1250.85"
         inkscape:connector-curvature="0" /><path
         id="path182"
         style="fill:#c8d6a1;fill-opacity:1;fill-rule:nonzero;stroke:none"
         d="m 8823.37,4768.41 c 113.96,-108.46 199.34,-247.8 250.76,-392.13 91.05,-255.58 92.8,-528.48 93.64,-795.89 0.28,-89 0.55,-178 0.84,-267 0.28,-87.57 -7.47,-106.42 -102.63,-94.87 -176.35,21.39 -359.68,57.74 -519.47,136.11 -76.04,37.29 -147.09,84.39 -226.82,113.76 -115.96,42.71 -234.85,23.37 -349.58,51.16 49.81,150.56 85.45,278.8 111.01,433.92 26.33,159.73 50.25,333.96 88.82,491.54 23.15,94.56 66.2,182.9 109.98,269.84 29.43,58.44 60.59,118.26 110.57,160.51 150.55,127.24 319.35,1.11 432.88,-106.95"
         inkscape:connector-curvature="0" /><path
         id="path184"
         style="fill:#e5d1bd;fill-opacity:1;fill-rule:nonzero;stroke:none"
         d="m 8412.15,5143.36 c 21.52,-47.04 56.7,-86.25 85.41,-129.29 27.94,-41.87 37.99,-79.75 45.4,-128.29 5.35,-35.06 17.89,-62.47 60.12,-68.47 79.65,-11.32 56.87,54.49 74.97,102.37 20.68,54.73 64.78,97.97 95.6,146.82 89.06,141.14 63.64,420.13 -121.47,479.67 -202.39,65.09 -305.35,-260.04 -240.03,-402.81"
         inkscape:connector-curvature="0" /><path
         id="path186"
         style="fill:#1a3151;fill-opacity:1;fill-rule:nonzero;stroke:none"
         d="m 8734.79,5279.95 c 22.98,-0.93 48.25,-2.75 65.29,-18.18 17.04,-15.43 15.19,-49.09 -7.3,-52.73 -20.4,-3.3 -46.81,17.98 -59.26,2.45 -7.28,-9.08 -0.89,-22.36 4.63,-32.98 21.2,-40.74 27.55,-87.98 17.66,-131.38 8.39,-7.78 21.47,0.29 28.85,8.39 36.59,40.19 65.18,87.14 83.9,137.79 7.35,-12.25 18.13,-22.69 30.85,-29.85 -7.63,19.04 -2.8,39.88 1.9,59.31 17.3,71.4 29.07,155.05 -20.79,213.39 -26.68,31.22 -67.25,49.18 -108.05,56.73 -40.79,7.55 -82.38,5.72 -123.49,3.86 -17.6,-0.8 -39.27,-4.59 -43.5,-20.87 38.58,-15.47 78.5,-45.6 97.82,-82.14 5.93,-11.21 29.14,-113.7 31.49,-113.79"
         inkscape:connector-curvature="0" /><path
         id="path188"
         style="fill:#1a3151;fill-opacity:1;fill-rule:nonzero;stroke:none"
         d="m 8653.25,5451.5 c 1.41,-1.02 2.79,-2.05 4.15,-3.08 17.48,-13.31 33.88,-29.5 55.05,-35.41 30.5,-8.5 63.27,6.2 93.3,-4.19 33.58,-11.62 55.64,-51.76 80.15,-75.52 40.18,-38.96 90.01,-67.61 143.49,-83.88 27.32,-8.32 55.62,-13.43 84.13,-15.04 12.93,-0.73 30.22,-3.18 42.82,0.22 16.92,4.55 16.33,12.24 -1.68,18.01 -56.51,18.11 -74.23,97.48 -69.96,150.09 3.37,41.53 17.7,84.94 1.86,123.47 -12.1,29.44 -38.08,44.64 -63.19,61.48 -27.7,18.57 -57.74,13.57 -89.19,22.5 -32.81,9.32 -59.54,35.15 -93.01,41.75 -35.34,6.96 -70.67,-8.71 -106.04,-15.58 -29.21,-5.68 -59.59,-5.3 -88.66,1.09 -26.05,5.73 -51.47,16.27 -78.14,16.03 -39.33,-0.37 -75.5,-24.91 -98.45,-56.85 -32.47,-45.19 -53.46,-122.5 -42.02,-181.99 -1.77,9.23 29.29,42.68 35.68,49.87 13.49,15.18 29.78,29.42 50.37,31.87 46.61,5.56 101.87,-17.63 139.34,-44.84"
         inkscape:connector-curvature="0" /><path
         id="path190"
         style="fill:#858789;fill-opacity:1;fill-rule:nonzero;stroke:none"
         d="m 7700,2701.81 -10.77,-118.26 c -3.49,-38.41 21.49,-72.08 55.8,-75.21 l 277.48,-25.24 c 34.3,-3.13 64.95,25.48 68.45,63.9 l 10.76,118.26 -401.72,36.55"
         inkscape:connector-curvature="0" /><path
         id="path192"
         style="fill:#ffd559;fill-opacity:1;fill-rule:nonzero;stroke:none"
         d="m 8718.18,4210.25 c 37.85,416.06 -232.7,780.75 -604.29,814.57 -371.6,33.81 -703.53,-276.07 -741.39,-692.13 -13.45,-147.85 12.08,-289.19 67.21,-411.53 l -0.03,0.01 c 155.27,-368.29 171.77,-666.43 171.77,-666.43 l 338.58,-30.81 338.57,-30.81 c 0,0 70.04,290.27 289.23,624.49 h -0.03 c 76.31,110.38 126.92,244.79 140.38,392.64"
         inkscape:connector-curvature="0" /><path
         id="path194"
         style="fill:#9ea6ad;fill-opacity:1;fill-rule:nonzero;stroke:none"
         d="m 7603.65,3255.45 -45.71,-502.39 c -1.91,-20.99 11.38,-39.35 29.68,-41.02 l 626.47,-57 c 18.3,-1.67 34.69,14 36.6,34.99 l 45.71,502.38 -692.75,63.04"
         inkscape:connector-curvature="0" /><path
         id="path196"
         style="fill:#e7d282;fill-opacity:1;fill-rule:nonzero;stroke:none"
         d="m 7611.45,3254.74 v 0 c 0,0.03 -0.05,0.82 -0.13,1.98 0.09,-1.28 0.13,-1.95 0.13,-1.98"
         inkscape:connector-curvature="0" /><path
         id="path198"
         style="fill:#e3ca58;fill-opacity:1;fill-rule:nonzero;stroke:none"
         d="m 8377.23,3443.87 v 0 c 45.2,105.59 110.23,235.94 200.6,373.74 v 0 c -90.37,-137.8 -155.4,-268.15 -200.6,-373.74 m 200.57,373.74 v 0 c 76.31,110.38 126.92,244.79 140.38,392.64 0.03,0.38 0.07,0.76 0.1,1.14 -0.03,-0.38 -0.07,-0.76 -0.1,-1.14 -13.46,-147.85 -64.07,-282.26 -140.38,-392.64"
         inkscape:connector-curvature="0" /><path
         id="path200"
         style="fill:#fec934;fill-opacity:1;fill-rule:nonzero;stroke:none"
         d="m 8288.6,3193.12 -296.11,26.95 -381.04,34.67 c 0,0.03 -0.04,0.7 -0.13,1.98 0,0.03 0,0.05 0,0.08 518.32,189.33 902.8,737.04 1107.74,1095.59 3.55,-46.06 3.51,-93.16 -0.78,-141 -0.03,-0.38 -0.07,-0.76 -0.1,-1.14 -13.46,-147.85 -64.07,-282.26 -140.38,-392.64 v 0 0 h 0.03 c -90.37,-137.8 -155.4,-268.15 -200.6,-373.74 -64.45,-150.51 -88.63,-250.75 -88.63,-250.75"
         inkscape:connector-curvature="0" /><path
         id="path202"
         style="fill:#ceb25e;fill-opacity:1;fill-rule:nonzero;stroke:none"
         d="m 7992.49,3220.07 -42.46,3.86 -338.58,30.81 v 0 0 l 381.04,-34.67"
         inkscape:connector-curvature="0" /><path
         id="path204"
         style="fill:#f5c24e;fill-opacity:1;fill-rule:nonzero;stroke:none"
         d="m 7525.04,3925.83 c -66.24,117.93 -99.02,261.08 -85.29,412 31.4,345.05 294.47,606.44 598.82,606.44 16.04,0 32.19,-0.72 48.43,-2.2 217.81,-19.82 395.85,-169.85 479.34,-376.24 -93.19,165.91 -252.65,281.89 -442.27,299.14 -16.26,1.48 -32.38,2.2 -48.43,2.2 -304.34,0 -567.43,-261.41 -598.82,-606.44 -10.86,-119.37 7.36,-233.89 48.22,-334.9"
         inkscape:connector-curvature="0" /><path
         id="path206"
         style="fill:#f6f7f7;fill-opacity:1;fill-rule:nonzero;stroke:none"
         d="m 7819.19,3235.84 6.23,971.72 103.96,-116.08 115.08,166.76 84.95,-179.3 120.86,90.88 -169.41,-957.79 34.75,-3.17 184.85,1045.11 -158,-118.82 -92.16,194.53 -123.86,-179.44 -135.19,150.98 -6.81,-1062.22 34.75,-3.16"
         inkscape:connector-curvature="0" /><path
         id="path208"
         style="fill:#edeced;fill-opacity:1;fill-rule:nonzero;stroke:none"
         d="m 7785.06,3335.9 -0.62,-96.9 34.75,-3.16 0.77,119.7 c -11.56,-6.71 -23.18,-13.27 -34.9,-19.64"
         inkscape:connector-curvature="0" /><path
         id="path210"
         style="fill:#edeced;fill-opacity:1;fill-rule:nonzero;stroke:none"
         d="m 8150.62,3606.39 -69.76,-394.36 34.75,-3.17 77.61,438.79 c -14.01,-13.92 -28.21,-27.68 -42.6,-41.26"
         inkscape:connector-curvature="0" /><path
         id="path212"
         style="fill:#909599;fill-opacity:1;fill-rule:nonzero;stroke:none"
         d="m 8276.61,2974.9 -692.75,63.03 8.44,92.77 692.75,-63.03 -8.44,-92.77"
         inkscape:connector-curvature="0" /><path
         id="path214"
         style="fill:#909599;fill-opacity:1;fill-rule:nonzero;stroke:none"
         d="m 8258.58,2776.77 -692.75,63.03 8.44,92.77 692.75,-63.03 -8.44,-92.77"
         inkscape:connector-curvature="0" /><path
         id="path216"
         style="fill:#909599;fill-opacity:1;fill-rule:nonzero;stroke:none"
         d="m 7954.07,2898.02 312.95,-28.48 9.59,105.36 -193.05,17.56 c -44.03,-36.32 -87.35,-67.55 -129.49,-94.44"
         inkscape:connector-curvature="0" /><path
         id="path218"
         style="fill:#909599;fill-opacity:1;fill-rule:nonzero;stroke:none"
         d="m 8285.05,3067.67 11.35,124.74 -10.9,1 c -35.96,-42.44 -71.93,-80.99 -107.68,-115.98 l 107.23,-9.76"
         inkscape:connector-curvature="0" /><path
         id="path220"
         style="fill:#909599;fill-opacity:1;fill-rule:nonzero;stroke:none"
         d="m 7587.62,2712.04 626.47,-57 c 18.3,-1.67 34.69,14 36.6,34.99 l 7.89,86.74 -452.33,41.15 c -96.41,-43.24 -181.61,-64.43 -248,-74.46 2.2,-16.7 13.94,-30.02 29.37,-31.42"
         inkscape:connector-curvature="0" /><path
         id="path222"
         style="fill:#888c8e;fill-opacity:1;fill-rule:nonzero;stroke:none"
         d="m 8083.56,2992.46 193.05,-17.56 8.44,92.77 -107.23,9.76 c -31.65,-30.99 -63.14,-59.29 -94.26,-84.97"
         inkscape:connector-curvature="0" /><path
         id="path224"
         style="fill:#888c8e;fill-opacity:1;fill-rule:nonzero;stroke:none"
         d="m 7806.25,2817.92 452.33,-41.15 8.44,92.77 -312.95,28.48 c -51.34,-32.76 -100.9,-59.05 -147.82,-80.1"
         inkscape:connector-curvature="0" /><path
         id="path226"
         style="fill:#757575;fill-opacity:1;fill-rule:nonzero;stroke:none"
         d="m 8095.18,2593.43 c -85.79,-77.12 -237.78,-88.98 -287.81,-90.76 l 215.13,-19.57 c 34.32,-3.13 64.96,25.48 68.46,63.9 l 4.22,46.43"
         inkscape:connector-curvature="0" /><path
         id="path228"
         style="fill:#e5d1bd;fill-opacity:1;fill-rule:nonzero;stroke:none"
         d="m 8261.05,3669.24 c 0.93,2.63 1.93,5.34 3.53,7.52 14.88,20.3 34.8,21.97 54.61,37.37 8.84,6.87 6.34,35.54 28.41,27.85 8.15,-2.84 27.14,-12.62 44.45,-18.83 25.24,-9.07 62.71,-5.31 91.9,3.17 39.25,11.39 80.52,24.36 117.32,41.34 38.52,17.78 76.09,37.59 112.77,58.89 30.57,17.75 79.07,38.09 102.18,65.1 39.08,45.68 -6.17,157.02 -11.32,214.06 -5.37,59.45 -0.16,234.58 80.08,239.53 131.48,8.12 133.54,-116.81 139.42,-217.4 3.66,-62.78 3.4,-126.74 -2.23,-189.41 -7.89,-87.77 -64.77,-138.02 -139.94,-179.56 -79.65,-44.03 -161.14,-87.21 -248.68,-113.41 -42.55,-12.73 -84.44,-16.54 -127.86,-23.56 -42.91,-6.93 -37.43,-25.64 -73.43,-41.35 -20.09,-8.76 -38.92,-21.49 -60.37,-26.38 -38.46,-8.77 -69.28,17.88 -98.5,38.52 -7.27,5.14 -12.2,8.59 -15.98,16.03 -6.14,12.11 -3.75,25.06 -1.84,38 1.14,7.66 2.89,15.27 5.48,22.52"
         inkscape:connector-curvature="0" /><path
         id="path230"
         style="fill:#c8d6a1;fill-opacity:1;fill-rule:nonzero;stroke:none"
         d="m 9021.95,4093.86 c -74.33,-14.41 -148.66,-28.82 -222.98,-43.22 4.77,0.92 -86.01,333.27 -90.74,353.24 -18.04,76.22 -36.16,155.32 -20.72,232.11 32.98,163.95 112.01,204.3 211.59,32.03 93.99,-162.61 241.31,-357.27 212.14,-542.34 -0.64,-4.02 -1.39,-8.23 -3.93,-11.41 -3.5,-4.36 -9.46,-5.7 -14.95,-6.76 -23.47,-4.55 -46.94,-9.1 -70.41,-13.65"
         inkscape:connector-curvature="0" /></g></g></svg>