<svg id="Capa_1" enable-background="new 0 0 512 512" height="512" viewBox="0 0 512 512" width="512" xmlns="http://www.w3.org/2000/svg"><g><g><path d="m472 301h-312c-16.569 0-30 13.431-30 30v150h372v-150c0-16.569-13.431-30-30-30z" fill="#eefaff"/><circle cx="160" cy="181" fill="#b8ecbc" r="150"/><path d="m190 421h252v60h-252z" fill="#b3f1ff"/><path d="m190 96.51c34.88 12.4 60 45.36 60 84.49 0 49.71-40.29 90-90 90-13.87 0-26.85-3.39-38.58-9l-44.1 44.1c-16.82-11.15-31.27-25.6-42.42-42.42l44.1-44.1c-5.61-11.73-9-24.71-9-38.58 0-39.13 25.12-72.09 60-84.49v84.49h60z" fill="#eefaff"/></g><g><circle cx="346" cy="361" r="10"/><circle cx="286" cy="361" r="10"/><circle cx="316" cy="481" r="10"/><path d="m472 291h-195.936c27.766-29.308 43.936-68.057 43.936-110 0-88.225-71.775-160-160-160s-160 71.775-160 160c0 73.642 50.307 136.967 120 154.935v145.065c0 5.522 4.478 10 10 10h141c5.522 0 10-4.478 10-10s-4.478-10-10-10h-71v-40h232v40h-71c-5.522 0-10 4.478-10 10s4.478 10 10 10h141c5.522 0 10-4.478 10-10v-150c0-22.056-17.944-40-40-40zm-312-250c77.196 0 140 62.804 140 140 0 78.934-64.415 140-140 140-22.843 0-45.686-5.509-66.569-16.869l30.234-30.234c11.819 4.717 24.011 7.103 36.335 7.103 55.141 0 100-44.859 100-100 0-41.999-26.784-79.739-66.65-93.912-3.063-1.09-6.462-.621-9.116 1.252-2.654 1.874-4.233 4.921-4.233 8.17v74.49h-40v-74.49c0-3.249-1.579-6.296-4.233-8.17s-6.054-2.343-9.116-1.252c-39.867 14.173-66.652 51.913-66.652 93.912 0 12.324 2.386 24.516 7.103 36.335l-30.218 30.218c-11.066-20.376-16.885-43.145-16.885-66.553 0-77.196 62.804-140 140-140zm-112.074 223.796 38.145-38.145c2.998-2.998 3.779-7.561 1.95-11.386-5.322-11.128-8.021-22.657-8.021-34.265 0-28.626 15.604-54.787 40-68.899v68.899c0 5.522 4.478 10 10 10h60c5.522 0 10-4.478 10-10v-68.899c24.396 14.112 40 40.273 40 68.899 0 44.112-35.888 80-80 80-11.608 0-23.137-2.699-34.266-8.021-3.825-1.828-8.388-1.046-11.386 1.95l-38.145 38.145c-10.758-8.049-20.228-17.518-28.277-28.278zm444.074 206.204h-40v-50c0-5.522-4.478-10-10-10h-252c-5.522 0-10 4.478-10 10v50h-40v-131.247c6.628.829 13.318 1.247 20 1.247 33.749 0 65.891-10.363 93.179-30h218.821c11.028 0 20 8.972 20 20z"/></g></g></svg>